<?xml version="1.0" encoding="utf-8"?>
<!-- Svg Vector Icons : http://www.onlinewebfonts.com/icon -->
<!DOCTYPE svg PUBLIC "-//W3C//DTD SVG 1.1//EN" "http://www.w3.org/Graphics/SVG/1.1/DTD/svg11.dtd">
<svg version="1.1" xmlns="http://www.w3.org/2000/svg" xmlns:xlink="http://www.w3.org/1999/xlink" x="0px" y="0px" viewBox="0 0 256 256" enable-background="new 0 0 256 256" xml:space="preserve">
<metadata> Svg Vector Icons : http://www.onlinewebfonts.com/icon </metadata>
<g><g><path fill="#000000" d="M128,10c3.3,0,6.1,1.1,8.4,3.4L219,96c2.3,2.3,3.4,5.1,3.4,8.4c0,3.4-1.1,6.2-3.4,8.4c-2.2,2.2-5.1,3.4-8.4,3.4c-3.3,0-6.1-1.1-8.4-3.4l-62.4-62.5v183.9c0,3.3-1.2,6-3.5,8.3c-2.3,2.3-5.1,3.5-8.3,3.5c-3.3,0-6-1.2-8.3-3.5c-2.3-2.3-3.5-5.1-3.5-8.3V50.3l-62.4,62.5c-2.3,2.3-5.1,3.4-8.4,3.4c-3.4,0-6.2-1.1-8.4-3.4c-2.2-2.2-3.4-5.1-3.4-8.4c0-3.3,1.1-6.1,3.4-8.4l82.6-82.6C121.9,11.1,124.7,10,128,10L128,10z"/></g></g>
</svg>